<?xml version="1.0" encoding="utf-8"?>
<!-- Generator: Adobe Illustrator 16.2.1, SVG Export Plug-In . SVG Version: 6.00 Build 0)  -->
<!DOCTYPE svg PUBLIC "-//W3C//DTD SVG 1.1//EN" "http://www.w3.org/Graphics/SVG/1.1/DTD/svg11.dtd">
<svg version="1.1" xmlns="http://www.w3.org/2000/svg" xmlns:xlink="http://www.w3.org/1999/xlink" x="0px" y="0px"
	 width="3507.853px" height="330.27px" viewBox="0 0 3507.853 330.27" enable-background="new 0 0 3507.853 330.27"
	 xml:space="preserve">
<pattern  x="446.972" y="302.804" width="138.171" height="144.195" patternUnits="userSpaceOnUse" id="New_Pattern_Swatch_6" viewBox="0 -144.195 138.171 144.195" overflow="visible">
	<g>
		<polygon fill="none" points="0,0 138.171,0 138.171,-144.195 0,-144.195 		"/>
		<g opacity="0.2">
			<polygon fill="#2AAAE1" points="0,-144.195 0,-96.195 46,-96.195 			"/>
			<polygon fill="#2AAAE1" points="46,-0.195 91.812,-0.195 46,-47.999 			"/>
		</g>
		<g opacity="0.2">
			<polygon fill="#2AAAE1" points="0,-72.195 0,-48.195 23,-72.195 			"/>
			<polygon fill="#2AAAE1" points="0,-120.195 0,-96.978 23,-120.195 			"/>
			<polygon fill="#2AAAE1" points="0,-24.195 0,0 23,-24.195 			"/>
			<g>
				<polygon fill="#2AAAE1" points="115,-48.195 115,-24.195 138,-48.195 				"/>
				<polygon fill="#2AAAE1" points="115,-72.195 138,-48.195 138,-72.195 				"/>
			</g>
			<polygon fill="#2AAAE1" points="69,-120.195 23,-120.195 23,-72.195 			"/>
			<polygon fill="#2AAAE1" points="69,-120.195 92,-144.195 69,-144.195 			"/>
			<polygon fill="#2AAAE1" points="92,-0.195 115,-24.195 69,-24.195 69,-0.195 			"/>
			<g>
				<polygon fill="#2AAAE1" points="46,-72.195 68.812,-72.195 46,-96.195 				"/>
				<polygon fill="#2AAAE1" points="68.812,-72.195 46,-48.195 92.028,-48.204 				"/>
			</g>
			<g>
				<polygon fill="#2AAAE1" points="92,-144.195 92,-120.187 115,-119.999 				"/>
				<g>
					<polygon fill="#2AAAE1" points="138,-120.195 115,-119.999 138,-96.195 					"/>
				</g>
			</g>
			<polygon fill="#2AAAE1" points="115,-119.999 138.171,-144.195 115,-144.195 			"/>
			<polygon fill="#2AAAE1" points="46.188,-0.195 69,-24.195 23,-24.195 46.188,-0.195 			"/>
		</g>
		<polygon opacity="0.4" fill="#2AAAE1" points="92.028,-48.204 138,-48.195 92,-96.195 		"/>
	</g>
</pattern>
<g id="Layer_3" display="none">
	<polygon display="inline" fill="#3B454F" points="3576.925,0 -102.128,0 -98.658,293.804 3580.395,293.804 	"/>
</g>
<g id="stars" display="none">
	<g display="inline">
		
			<rect x="1113.332" y="71.803" transform="matrix(0.7071 0.7071 -0.7071 0.7071 380.861 -767.8712)" fill="#FFFFFF" width="8.002" height="8.002"/>
		
			<rect x="1320.213" y="95.803" transform="matrix(0.7071 0.7071 -0.7071 0.7071 458.4255 -907.1286)" fill="#FFFFFF" width="8.002" height="8.002"/>
		
			<rect x="1504.332" y="119.803" transform="matrix(0.7071 0.7071 -0.7071 0.7071 529.3233 -1030.291)" fill="#FFFFFF" width="8.002" height="8.002"/>
		
			<rect x="952.332" y="167.803" transform="matrix(0.7071 0.7071 -0.7071 0.7071 401.5873 -625.9092)" fill="#FFFFFF" width="8.002" height="8.002"/>
		
			<rect x="1826.819" y="47.803" transform="matrix(0.7071 0.7071 -0.7071 0.7071 572.866 -1279.4124)" fill="#FFFFFF" width="8.002" height="8.002"/>
		
			<rect x="2625.819" y="144.303" transform="matrix(0.7071 0.7071 -0.7071 0.7071 875.1235 -1816.1265)" fill="#FFFFFF" width="8.002" height="8.002"/>
		
			<rect x="2119.332" y="71.803" transform="matrix(0.7071 0.7071 -0.7071 0.7071 675.5116 -1479.2206)" fill="#FFFFFF" width="8.002" height="8.002"/>
		
			<rect x="2326.213" y="95.803" transform="matrix(0.7071 0.7071 -0.7071 0.7071 753.0762 -1618.478)" fill="#FFFFFF" width="8.002" height="8.002"/>
		
			<rect x="2395.332" y="167.803" transform="matrix(0.7071 0.7071 -0.7071 0.7071 824.2323 -1646.2643)" fill="#FFFFFF" width="8.002" height="8.002"/>
		
			<rect x="2510.332" y="119.803" transform="matrix(0.7071 0.7071 -0.7071 0.7071 823.9739 -1741.6404)" fill="#FFFFFF" width="8.002" height="8.002"/>
		
			<rect x="551.923" y="95.803" transform="matrix(0.7071 0.7071 -0.7071 0.7071 233.3986 -363.8655)" fill="#FFFFFF" width="8.002" height="8.002"/>
		
			<rect x="621.042" y="167.803" transform="matrix(0.7071 0.7071 -0.7071 0.7071 304.5548 -391.6518)" fill="#FFFFFF" width="8.002" height="8.002"/>
		
			<rect x="736.042" y="119.803" transform="matrix(0.7071 0.7071 -0.7071 0.7071 304.2964 -487.028)" fill="#FFFFFF" width="8.002" height="8.002"/>
		
			<rect x="2832.819" y="47.803" transform="matrix(0.7071 0.7071 -0.7071 0.7071 867.5166 -1990.7617)" fill="#FFFFFF" width="8.002" height="8.002"/>
	</g>
</g>
<g id="mountains">
	<polygon fill="#FFFFFF" points="937.972,197.986 868.465,267.493 1006.972,267.493 	"/>
	<pattern  id="SVGID_1_" xlink:href="#New_Pattern_Swatch_6" patternTransform="matrix(1 0 0 1 -130 14)">
	</pattern>
	<polygon opacity="0.6" fill="url(#SVGID_1_)" points="937.972,197.986 868.465,267.493 1006.972,267.493 	"/>
	<polygon fill="#FFFFFF" points="1110.472,160 1006.718,267.494 1213.156,267.494 	"/>
	<pattern  id="SVGID_2_" xlink:href="#New_Pattern_Swatch_6" patternTransform="matrix(1 0 0 1 -119 -46.999)">
	</pattern>
	<polygon opacity="0.6" fill="url(#SVGID_2_)" points="1110.472,160 1006.718,267.494 1213.156,267.494 	"/>
	<polygon opacity="0.4" fill="#2AAAE1" points="917,267.493 960.972,267.493 1006.972,267.493 937.972,197.986 937.972,244 	"/>
	<polygon fill="#FFFFFF" points="445.972,197.986 376.465,267.493 514.972,267.493 	"/>
	<pattern  id="SVGID_3_" xlink:href="#New_Pattern_Swatch_6" patternTransform="matrix(1 0 0 1 -69.3164 38)">
	</pattern>
	<polygon opacity="0.6" fill="url(#SVGID_3_)" points="445.972,197.986 376.465,267.493 514.972,267.493 	"/>
	<polygon fill="#FFFFFF" points="375.961,267.493 341.706,232.986 307.199,267.493 	"/>
	<pattern  id="SVGID_4_" xlink:href="#New_Pattern_Swatch_6" patternTransform="matrix(1 0 0 1 -173.582 49)">
	</pattern>
	<polygon fill="url(#SVGID_4_)" points="375.961,267.493 341.706,232.986 307.199,267.493 	"/>
	<polygon fill="#FFFFFF" points="583.853,267.493 549.598,232.986 515.091,267.493 	"/>
	<polygon opacity="0.6" fill="#2AAAE1" points="583.853,267.493 549.598,232.986 515.091,267.493 	"/>
	<polygon opacity="0.4" fill="#2AAAE1" points="468.972,244 468.972,267.493 514.972,267.493 445.972,197.986 445.972,266.812 	"/>
	<polygon opacity="0.2" fill="#2AAAE1" points="468.972,244 468.972,267.804 492.972,267.804 	"/>
	<polygon opacity="0.4" fill="#2AAAE1" points="376.465,268 341.706,232.986 341.706,268 	"/>
	<polygon opacity="0.8" fill="#2AAAE1" points="583.853,267.493 549.598,232.986 549.598,267.493 	"/>
	<polygon fill="#FFFFFF" points="1282.733,267.493 1248.479,232.986 1213.972,267.493 	"/>
	<polygon opacity="0.6" fill="#2AAAE1" points="1282.733,267.493 1248.479,232.986 1213.972,267.493 	"/>
	<polygon fill="#2AAAE1" points="1282.733,267.493 1248.479,232.986 1248.479,267.493 	"/>
	<polygon fill="#FFFFFF" points="1736.337,160 1632.583,267.494 1839.021,267.494 	"/>
	<pattern  id="SVGID_5_" xlink:href="#New_Pattern_Swatch_6" patternTransform="matrix(1 0 0 1 -298.9893 -94.999)">
	</pattern>
	<polygon opacity="0.6" fill="url(#SVGID_5_)" points="1736.337,160 1632.583,267.494 1839.021,267.494 	"/>
	<polygon fill="#FFFFFF" points="1560.972,197.986 1491.465,267.493 1629.972,267.493 	"/>
	<pattern  id="SVGID_6_" xlink:href="#New_Pattern_Swatch_6" patternTransform="matrix(1 0 0 1 -59.6836 38)">
	</pattern>
	<polygon opacity="0.6" fill="url(#SVGID_6_)" points="1560.972,197.986 1491.465,267.493 1629.972,267.493 	"/>
	<polygon fill="#FFFFFF" points="1490.961,267.493 1456.706,232.986 1422.199,267.493 	"/>
	<pattern  id="SVGID_7_" xlink:href="#New_Pattern_Swatch_6" patternTransform="matrix(1 0 0 1 -25.9492 86)">
	</pattern>
	<polygon fill="url(#SVGID_7_)" points="1490.961,267.493 1456.706,232.986 1422.199,267.493 	"/>
	<polygon opacity="0.4" fill="#2AAAE1" points="1583.972,244 1583.972,267.493 1629.972,267.493 1560.972,197.986 1560.972,266.812 
			"/>
	<polygon opacity="0.2" fill="#2AAAE1" points="1583.972,244 1583.972,267.804 1607.972,267.804 	"/>
	<polygon opacity="0.4" fill="#2AAAE1" points="1491.465,268 1456.706,232.986 1456.706,268 	"/>
	<polygon fill="#FFFFFF" points="1908.599,267.493 1874.344,232.986 1839.837,267.493 	"/>
	<polygon opacity="0.6" fill="#2AAAE1" points="1908.599,267.493 1874.344,232.986 1839.837,267.493 	"/>
	<polygon fill="#2AAAE1" points="1908.599,267.493 1874.344,232.986 1874.344,267.493 	"/>
	<polygon fill="#FFFFFF" points="2738.972,197.986 2669.465,267.493 2807.972,267.493 	"/>
	<pattern  id="SVGID_8_" xlink:href="#New_Pattern_Swatch_6" patternTransform="matrix(1 0 0 1 -195.5635 14)">
	</pattern>
	<polygon opacity="0.6" fill="url(#SVGID_8_)" points="2738.972,197.986 2669.465,267.493 2807.972,267.493 	"/>
	<polygon fill="#FFFFFF" points="2566.472,160 2462.718,267.494 2669.156,267.494 	"/>
	<pattern  id="SVGID_9_" xlink:href="#New_Pattern_Swatch_6" patternTransform="matrix(1 0 0 1 -321.0508 -9.999)">
	</pattern>
	<polygon opacity="0.6" fill="url(#SVGID_9_)" points="2566.472,160 2462.718,267.494 2669.156,267.494 	"/>
	<polygon opacity="0.4" fill="#2AAAE1" points="2761.972,244 2761.972,267.493 2807.972,267.493 2738.972,197.986 2738.972,266.812 
			"/>
	<polygon opacity="0.4" fill="#2AAAE1" points="2589.472,244 2589.472,267.493 2669.465,267.493 2566.472,160 2566.472,266.812 	"/>
	<polygon opacity="0.2" fill="#2AAAE1" points="2761.972,244 2761.972,267.804 2785.972,267.804 	"/>
	<polygon fill="#FFFFFF" points="2324.972,197.986 2255.465,267.493 2393.972,267.493 	"/>
	<pattern  id="SVGID_10_" xlink:href="#New_Pattern_Swatch_6" patternTransform="matrix(1 0 0 1 -78.8799 38)">
	</pattern>
	<polygon opacity="0.6" fill="url(#SVGID_10_)" points="2324.972,197.986 2255.465,267.493 2393.972,267.493 	"/>
	<polygon opacity="0.4" fill="#2AAAE1" points="2302.441,267.493 2393.972,267.493 2324.972,197.986 2324.972,244.277 	"/>
	<polygon fill="#FFFFFF" points="2876.733,267.493 2842.479,232.986 2807.972,267.493 	"/>
	<pattern  id="SVGID_11_" xlink:href="#New_Pattern_Swatch_6" patternTransform="matrix(1 0 0 1 -159.8857 49)">
	</pattern>
	<polygon fill="url(#SVGID_11_)" points="2876.733,267.493 2842.479,232.986 2807.972,267.493 	"/>
	<polygon fill="#FFFFFF" points="2255.465,267.493 2221.21,232.986 2186.703,267.493 	"/>
	<polygon opacity="0.6" fill="#2AAAE1" points="2255.465,267.493 2221.21,232.986 2186.703,267.493 	"/>
	<polygon opacity="0.4" fill="#2AAAE1" points="2877.237,268 2842.479,232.986 2842.479,268 	"/>
	<polygon opacity="0.8" fill="#2AAAE1" points="2255.465,267.493 2221.21,232.986 2221.21,267.493 	"/>
	<polygon fill="#FFFFFF" points="2462.733,267.493 2428.479,232.986 2393.972,267.493 	"/>
	<polygon opacity="0.6" fill="#2AAAE1" points="2462.733,267.493 2428.479,232.986 2393.972,267.493 	"/>
	<polygon fill="#2AAAE1" points="2462.607,267.493 2428.353,232.986 2428.353,267.493 	"/>
	<rect x="-21.028" y="267.493" fill="#2AAAE1" width="3662" height="62.777"/>
	<polygon fill="#FFFFFF" points="3369.972,197.986 3300.465,267.493 3438.972,267.493 	"/>
	<pattern  id="SVGID_12_" xlink:href="#New_Pattern_Swatch_6" patternTransform="matrix(1 0 0 1 229.4365 38)">
	</pattern>
	<polygon opacity="0.6" fill="url(#SVGID_12_)" points="3369.972,197.986 3300.465,267.493 3438.972,267.493 	"/>
	<polygon fill="#FFFFFF" points="3299.961,267.493 3265.706,232.986 3231.199,267.493 	"/>
	<pattern  id="SVGID_13_" xlink:href="#New_Pattern_Swatch_6" patternTransform="matrix(1 0 0 1 125.1709 49)">
	</pattern>
	<polygon fill="url(#SVGID_13_)" points="3299.961,267.493 3265.706,232.986 3231.199,267.493 	"/>
	<polygon fill="#FFFFFF" points="3507.853,267.493 3473.598,232.986 3439.091,267.493 	"/>
	<polygon opacity="0.6" fill="#2AAAE1" points="3507.853,267.493 3473.598,232.986 3439.091,267.493 	"/>
	<polygon opacity="0.4" fill="#2AAAE1" points="3392.972,244 3392.972,267.493 3438.972,267.493 3369.972,197.986 3369.972,266.812 
			"/>
	<polygon opacity="0.2" fill="#2AAAE1" points="3392.972,244 3392.972,267.804 3416.972,267.804 	"/>
	<polygon opacity="0.4" fill="#2AAAE1" points="3300.465,268 3265.706,232.986 3265.706,268 	"/>
	<polygon opacity="0.8" fill="#2AAAE1" points="3507.853,267.493 3473.598,232.986 3473.598,267.493 	"/>
	<polygon fill="#FFFFFF" points="1977.972,197.986 1908.465,267.493 2046.972,267.493 	"/>
	<pattern  id="SVGID_14_" xlink:href="#New_Pattern_Swatch_6" patternTransform="matrix(1 0 0 1 -195.3672 14)">
	</pattern>
	<polygon opacity="0.6" fill="url(#SVGID_14_)" points="1977.972,197.986 1908.465,267.493 2046.972,267.493 	"/>
	<polygon opacity="0.4" fill="#2AAAE1" points="2000.972,244 2000.972,267.493 2046.972,267.493 1977.972,197.986 1977.972,266.812 
			"/>
	<polygon opacity="0.2" fill="#2AAAE1" points="2000.972,244 2000.972,267.804 2024.972,267.804 	"/>
	<polygon opacity="0.4" fill="#2AAAE1" points="1109.937,267.804 1213.972,267.804 1110.071,159.948 1109.972,159.894 
		1109.972,208.372 1086.827,231.804 1109.972,231.804 	"/>
	<polygon opacity="0.4" fill="#2AAAE1" points="1735.937,267.804 1839.972,267.804 1736.071,159.948 1735.972,159.894 
		1735.972,232.607 1702.638,268 	"/>
</g>
<g id="dust" display="none">
	<rect x="433.972" y="250.804" display="inline" opacity="0.2" fill="#2AAAE1" width="2456.411" height="17"/>
	<rect x="433.972" y="197.986" display="inline" opacity="0.2" fill="#2AAAE1" width="2456.411" height="69.318"/>
</g>
<g id="rocket" display="none">
	<path display="inline" opacity="0.2" fill="#FFFFFF" d="M859.877,92.848"/>
	<path display="inline" fill="#E24B70" d="M866.923,137.978c-11.562,11.562-38.571,22.444-45.646,15.37l27.752-27.755
		L866.923,137.978z"/>
	<path display="inline" fill="#E24B70" d="M866.923,100.389c-11.562-11.562-38.571-22.449-45.646-15.372l27.752,27.756
		L866.923,100.389z"/>
	<g display="inline">
		<rect x="864.972" y="97.804" fill="#E96E97" width="44" height="42"/>
		<path fill="#E24B70" d="M821.393,117.802c-0.003,0.01-0.007,0.021-0.007,0.027c-0.066,0.358-0.108,0.715-0.108,1.07
			c0,0.354,0.042,0.71,0.108,1.069c0,0.011,0.004,0.017,0.007,0.027c1.809,9.61,27.116,20.058,42.908,20.302
			c0.077,0,0.671,0.011,0.671,0.011v-42.82c0,0-0.594,0.011-0.671,0.015C848.509,97.744,823.201,108.191,821.393,117.802z"/>
	</g>
	<circle display="inline" opacity="0.5" fill="#FFFFFF" cx="885.507" cy="118.899" r="10.705"/>
	<path display="inline" fill="#E24B70" d="M948.726,117.804h-0.021c0.004,0,0.021,0.434,0.021,0.339
		c0-0.265-0.024-0.235-0.059-0.521c-0.095-0.896,0.691-1.609,0.316-2.428c-3.059-7.412-16.012-17.706-40.012-17.706V118.9l0,0
		v21.409C938.972,140.309,948.726,125.804,948.726,117.804z"/>
	<g display="inline" opacity="0.3">
		<path fill="#FFFFFF" d="M948.726,118.143c0-0.265-0.024-0.235-0.059-0.521c-0.095-0.896-0.336-1.452-0.711-2.271
			c-3.061-7.411-15.521-17.547-41.039-17.547h-42.82c-0.08,0-0.156-0.146-0.236-0.143c-15.789,0.24-40.659,10.607-42.468,20.218
			c-0.003,0.011-0.007-0.562-0.007-0.557c-0.066,0.359-0.108,0.481-0.108,0.481h127.427
			C948.708,117.804,948.726,118.238,948.726,118.143z"/>
	</g>
	<linearGradient id="SVGID_15_" gradientUnits="userSpaceOnUse" x1="570.0264" y1="118.8989" x2="779.4064" y2="118.8989">
		<stop  offset="0" style="stop-color:#E24B70;stop-opacity:0"/>
		<stop  offset="0.9954" style="stop-color:#E24B70"/>
	</linearGradient>
	<path display="inline" opacity="0.5" fill="url(#SVGID_15_)" d="M816.603,118.539c0-1.469,0.211-2.885,0.571-4.24l-338.202-16.81
		v19.626v3.569v19.625l338.391-16.817C816.87,121.928,816.603,120.265,816.603,118.539z"/>
</g>
<g id="Layer_2" display="none">
</g>
</svg>
