<?xml version="1.0" encoding="utf-8"?>
<!-- Generator: Adobe Illustrator 16.2.1, SVG Export Plug-In . SVG Version: 6.00 Build 0)  -->
<!DOCTYPE svg PUBLIC "-//W3C//DTD SVG 1.1//EN" "http://www.w3.org/Graphics/SVG/1.1/DTD/svg11.dtd">
<svg version="1.1" id="Layer_1" xmlns="http://www.w3.org/2000/svg" xmlns:xlink="http://www.w3.org/1999/xlink" x="0px" y="0px"
	 width="395.152px" height="72.594px" viewBox="0 0 395.152 72.594" enable-background="new 0 0 395.152 72.594"
	 xml:space="preserve">
<path opacity="0.2" fill="#FFFFFF" d="M304.976,9.848"/>
<path fill="#E24B70" d="M312.021,54.978c-11.562,11.562-38.571,22.444-45.646,15.37l27.752-27.755L312.021,54.978z"/>
<path fill="#E24B70" d="M312.021,17.389C300.46,5.827,273.45-5.06,266.376,2.017l27.752,27.756L312.021,17.389z"/>
<path fill="#E24B70" d="M393.824,35h-0.013c-0.011-0.086-0.026-0.164-0.046-0.329c-0.095-0.896-0.776-2.331-1.151-3.149
	C389.556,24.11,378,14,354,14c0,0-44.559-0.004-44.636,0c-15.792,0.24-41.064,11.191-42.873,20.802
	c-0.003,0.01-0.007,0.021-0.007,0.027c-0.066,0.358-0.108,0.715-0.108,1.07c0,0.354,0.042,0.71,0.108,1.069
	c0,0.011,0.004,0.017,0.007,0.027c1.809,9.61,26.871,20.759,42.663,21.003C309.231,58,354,58,354,58
	c29.773,0,39.669-14.771,39.817-22.813c0.003,0.054,0.007,0.094,0.007,0.055c0-0.058-0.001-0.101-0.004-0.141
	C393.821,35.067,393.824,35.033,393.824,35z"/>
<g>
	<rect x="310" y="14" fill="#E96E97" width="44" height="44"/>
</g>
<circle opacity="0.5" fill="#FFFFFF" cx="330.605" cy="35.899" r="10.705"/>
<g opacity="0.3">
	<path fill="#FFFFFF" d="M393.824,35.241c0-0.265-0.024-0.285-0.059-0.57c-0.095-0.896-0.336-1.378-0.711-2.198
		C389.994,25.062,379.518,14,354,14h-44c-0.08,0-1.697,0.037-1.777,0.035c-14.929-0.289-40.718,12.05-41.731,20.893
		c-0.003,0.011,0,0,0,0L393.803,35C393.807,35,393.824,35.336,393.824,35.241z"/>
</g>
<linearGradient id="SVGID_1_" gradientUnits="userSpaceOnUse" x1="15.125" y1="35.8989" x2="224.505" y2="35.8989">
	<stop  offset="0" style="stop-color:#E24B70;stop-opacity:0"/>
	<stop  offset="0.9954" style="stop-color:#E24B70"/>
</linearGradient>
<path opacity="0.5" fill="url(#SVGID_1_)" d="M261.701,35.539c0-1.469,0.211-2.885,0.571-4.24L-75.93,14.489v19.626v3.569v19.625
	l338.391-16.817C261.969,38.928,261.701,37.265,261.701,35.539z"/>
</svg>
